<svg width="7832" height="1972" viewBox="0 0 7832 1972" fill="none" xmlns="http://www.w3.org/2000/svg">
<path d="M485.398 857.65C492.976 871.912 499.885 886.843 506.125 902.442C512.811 917.596 519.274 932.973 525.514 948.572C531.754 932.527 538.217 916.705 544.903 901.105C551.589 885.506 558.721 870.575 566.298 856.312L852.456 320.807C856.022 314.121 859.588 308.773 863.153 304.762C867.165 300.75 871.399 297.853 875.857 296.071C880.76 294.288 886.108 293.173 891.903 292.728C897.697 292.282 904.606 292.059 912.629 292.059H1048.35V1258.78H889.897V634.355C889.897 622.767 890.12 610.065 890.566 596.248C891.457 582.431 892.571 568.392 893.909 554.13L601.734 1102.34C595.048 1114.82 586.356 1124.62 575.659 1131.75C564.961 1138.44 552.481 1141.78 538.217 1141.78H513.479C499.216 1141.78 486.736 1138.44 476.038 1131.75C465.341 1124.62 456.649 1114.82 449.963 1102.34L153.776 552.124C155.559 566.832 156.674 581.317 157.119 595.579C158.011 609.396 158.457 622.321 158.457 634.355V1258.78H0V292.059H135.724C143.747 292.059 150.656 292.282 156.451 292.728C162.245 293.173 167.371 294.288 171.828 296.071C176.731 297.853 181.189 300.75 185.2 304.762C189.212 308.773 193 314.121 196.566 320.807L485.398 857.65Z" fill="#154490"/>
<path d="M1517.29 562.152C1560.52 562.152 1600.19 569.06 1636.3 582.877C1672.85 596.694 1704.27 616.973 1730.57 643.715C1756.87 670.011 1777.37 702.547 1792.08 741.323C1806.79 779.653 1814.14 823.554 1814.14 873.026C1814.14 885.506 1813.47 895.98 1812.14 904.448C1811.25 912.47 1809.24 918.933 1806.12 923.836C1803.45 928.293 1799.66 931.635 1794.75 933.864C1789.85 935.647 1783.61 936.538 1776.03 936.538H1352.15C1357.05 1006.96 1375.99 1058.66 1408.98 1091.64C1441.96 1124.62 1485.64 1141.11 1540.02 1141.11C1566.76 1141.11 1589.72 1137.99 1608.89 1131.75C1628.5 1125.51 1645.43 1118.61 1659.7 1111.03C1674.41 1103.45 1687.11 1096.54 1697.81 1090.3C1708.95 1084.06 1719.65 1080.94 1729.9 1080.94C1736.59 1080.94 1742.38 1082.28 1747.28 1084.96C1752.19 1087.63 1756.42 1091.42 1759.99 1096.32L1808.13 1156.49C1789.85 1177.88 1769.35 1195.93 1746.62 1210.64C1723.88 1224.9 1700.04 1236.49 1675.08 1245.41C1650.56 1253.87 1625.38 1259.89 1599.52 1263.46C1574.12 1267.02 1549.38 1268.81 1525.31 1268.81C1477.62 1268.81 1433.27 1261.01 1392.26 1245.41C1351.25 1229.36 1315.6 1205.96 1285.29 1175.21C1254.98 1144.01 1231.13 1105.68 1213.75 1060.22C1196.36 1014.31 1187.67 961.274 1187.67 901.105C1187.67 854.307 1195.25 810.406 1210.4 769.401C1225.56 727.952 1247.18 692.073 1275.26 661.765C1303.78 631.012 1338.33 606.722 1378.89 588.894C1419.9 571.066 1466.03 562.152 1517.29 562.152ZM1520.63 680.485C1472.49 680.485 1434.83 694.079 1407.64 721.266C1380.45 748.454 1363.07 787.007 1355.49 836.925H1665.72C1665.72 815.531 1662.82 795.475 1657.02 776.755C1651.23 757.59 1642.31 740.877 1630.28 726.614C1618.25 712.352 1603.09 701.21 1584.82 693.187C1566.54 684.719 1545.15 680.485 1520.63 680.485Z" fill="#154490"/>
<path d="M2430.83 1258.78C2409.43 1258.78 2395.39 1248.75 2388.7 1228.69L2375.33 1162.51C2361.07 1178.55 2346.14 1193.04 2330.54 1205.96C2314.94 1218.89 2298 1230.03 2279.72 1239.39C2261.89 1248.75 2242.51 1255.88 2221.56 1260.78C2201.05 1266.13 2178.77 1268.81 2154.7 1268.81C2117.26 1268.81 2082.93 1261.01 2051.73 1245.41C2020.53 1229.81 1993.57 1207.3 1970.83 1177.88C1948.55 1148.02 1931.16 1111.25 1918.68 1067.57C1906.65 1023.89 1900.63 973.977 1900.63 917.819C1900.63 867.009 1907.54 819.765 1921.36 776.087C1935.18 732.409 1955.01 694.524 1980.86 662.434C2006.72 630.344 2037.69 605.385 2073.8 587.557C2109.9 569.283 2150.46 560.146 2195.48 560.146C2233.81 560.146 2266.58 566.386 2293.76 578.866C2320.95 590.899 2345.25 607.167 2366.64 627.67V265.317H2531.78V1258.78H2430.83ZM2210.86 1137.77C2245.18 1137.77 2274.38 1130.64 2298.44 1116.38C2322.51 1102.11 2345.25 1081.84 2366.64 1055.54V748.008C2347.92 725.277 2327.42 709.232 2305.13 699.873C2283.29 690.513 2259.67 685.833 2234.26 685.833C2209.3 685.833 2186.57 690.513 2166.06 699.873C2146.01 709.232 2128.84 723.495 2114.58 742.66C2100.76 761.379 2090.07 785.447 2082.49 814.863C2074.91 843.833 2071.12 878.152 2071.12 917.819C2071.12 957.932 2074.24 992.027 2080.48 1020.11C2087.17 1047.74 2096.53 1070.47 2108.56 1088.3C2120.6 1105.68 2135.31 1118.38 2152.69 1126.41C2170.07 1133.98 2189.46 1137.77 2210.86 1137.77Z" fill="#154490"/>
<path d="M2886.56 572.849V1258.78H2721.41V572.849H2886.56ZM2911.29 372.953C2911.29 387.216 2908.4 400.587 2902.6 413.066C2896.81 425.546 2889.01 436.465 2879.2 445.825C2869.84 455.185 2858.7 462.761 2845.77 468.556C2832.85 473.904 2819.03 476.578 2804.32 476.578C2790.06 476.578 2776.46 473.904 2763.53 468.556C2751.05 462.761 2740.13 455.185 2730.77 445.825C2721.41 436.465 2713.84 425.546 2708.04 413.066C2702.69 400.587 2700.02 387.216 2700.02 372.953C2700.02 358.245 2702.69 344.429 2708.04 331.503C2713.84 318.578 2721.41 307.436 2730.77 298.076C2740.13 288.717 2751.05 281.363 2763.53 276.014C2776.46 270.22 2790.06 267.323 2804.32 267.323C2819.03 267.323 2832.85 270.22 2845.77 276.014C2858.7 281.363 2869.84 288.717 2879.2 298.076C2889.01 307.436 2896.81 318.578 2902.6 331.503C2908.4 344.429 2911.29 358.245 2911.29 372.953Z" fill="#154490"/>
<path d="M3611.29 1258.78H3537.08C3521.48 1258.78 3509.22 1256.55 3500.3 1252.09C3491.39 1247.19 3484.7 1237.61 3480.25 1223.34L3465.54 1174.54C3448.15 1190.14 3430.99 1203.96 3414.05 1215.99C3397.56 1227.58 3380.4 1237.38 3362.57 1245.41C3344.74 1253.43 3325.8 1259.45 3305.74 1263.46C3285.68 1267.47 3263.4 1269.47 3238.88 1269.47C3209.91 1269.47 3183.17 1265.69 3158.65 1258.11C3134.14 1250.09 3112.96 1238.28 3095.14 1222.68C3077.75 1207.08 3064.16 1187.69 3054.35 1164.51C3044.55 1141.34 3039.64 1114.37 3039.64 1083.62C3039.64 1057.77 3046.33 1032.36 3059.7 1007.4C3073.52 981.999 3096.25 959.269 3127.9 939.212C3159.54 918.71 3201.66 901.774 3254.26 888.403C3306.86 875.032 3372.16 867.455 3450.16 865.672V825.559C3450.16 779.653 3440.35 745.779 3420.74 723.94C3401.57 701.655 3373.49 690.513 3336.5 690.513C3309.75 690.513 3287.47 693.633 3269.64 699.873C3251.81 706.112 3236.21 713.244 3222.84 721.266C3209.91 728.843 3197.88 735.751 3186.73 741.991C3175.59 748.231 3163.33 751.351 3149.96 751.351C3138.82 751.351 3129.23 748.454 3121.21 742.66C3113.19 736.866 3106.72 729.734 3101.82 721.266L3071.74 668.451C3150.63 596.248 3245.79 560.146 3357.22 560.146C3397.34 560.146 3433 566.832 3464.2 580.203C3495.85 593.128 3522.59 611.402 3544.43 635.024C3566.27 658.2 3582.76 686.056 3593.91 718.592C3605.49 751.128 3611.29 786.784 3611.29 825.559V1258.78ZM3290.36 1155.82C3307.3 1155.82 3322.9 1154.26 3337.17 1151.14C3351.43 1148.02 3364.8 1143.34 3377.28 1137.1C3390.21 1130.86 3402.47 1123.29 3414.05 1114.37C3426.09 1105.01 3438.12 1094.09 3450.16 1081.61V965.954C3402.02 968.183 3361.68 972.417 3329.14 978.656C3297.05 984.451 3271.2 992.027 3251.59 1001.39C3231.97 1010.75 3217.93 1021.67 3209.47 1034.15C3201.44 1046.63 3197.43 1060.22 3197.43 1074.93C3197.43 1103.9 3205.9 1124.62 3222.84 1137.1C3240.22 1149.58 3262.73 1155.82 3290.36 1155.82Z" fill="#154490"/>
<path d="M3998.99 1269.47C3939.71 1269.47 3894.02 1252.76 3861.93 1219.33C3829.84 1185.46 3813.79 1138.88 3813.79 1079.61V696.53H3744.26C3735.34 696.53 3727.54 693.633 3720.85 687.839C3714.61 682.045 3711.49 673.354 3711.49 661.765V596.248L3821.81 578.197L3856.58 391.004C3858.36 382.09 3862.37 375.182 3868.61 370.279C3875.3 365.377 3883.55 362.925 3893.35 362.925H3978.93V578.866H4159.45V696.53H3978.93V1068.24C3978.93 1089.64 3984.28 1106.35 3994.98 1118.38C4005.68 1130.42 4019.94 1136.43 4037.77 1136.43C4048.02 1136.43 4056.49 1135.32 4063.17 1133.09C4070.31 1130.42 4076.32 1127.74 4081.23 1125.07C4086.58 1122.39 4091.26 1119.94 4095.27 1117.71C4099.28 1115.04 4103.29 1113.7 4107.3 1113.7C4112.2 1113.7 4116.22 1115.04 4119.34 1117.71C4122.46 1119.94 4125.8 1123.51 4129.37 1128.41L4178.84 1208.64C4154.77 1228.69 4127.14 1243.85 4095.94 1254.1C4064.73 1264.35 4032.42 1269.47 3998.99 1269.47Z" fill="#154490"/>
<path d="M4466.63 572.849V1258.78H4301.49V572.849H4466.63ZM4491.37 372.953C4491.37 387.216 4488.47 400.587 4482.67 413.066C4476.88 425.546 4469.08 436.465 4459.27 445.825C4449.91 455.185 4438.77 462.761 4425.84 468.556C4412.92 473.904 4399.1 476.578 4384.39 476.578C4370.13 476.578 4356.53 473.904 4343.61 468.556C4331.13 462.761 4320.21 455.185 4310.85 445.825C4301.49 436.465 4293.91 425.546 4288.11 413.066C4282.77 400.587 4280.09 387.216 4280.09 372.953C4280.09 358.245 4282.77 344.429 4288.11 331.503C4293.91 318.578 4301.49 307.436 4310.85 298.076C4320.21 288.717 4331.13 281.363 4343.61 276.014C4356.53 270.22 4370.13 267.323 4384.39 267.323C4399.1 267.323 4412.92 270.22 4425.84 276.014C4438.77 281.363 4449.91 288.717 4459.27 298.076C4469.08 307.436 4476.88 318.578 4482.67 331.503C4488.47 344.429 4491.37 358.245 4491.37 372.953Z" fill="#154490"/>
<path d="M4946.66 562.152C4997.92 562.152 5044.27 570.397 5085.72 586.888C5127.62 603.379 5163.28 626.778 5192.7 657.086C5222.12 687.393 5244.85 724.386 5260.9 768.064C5276.94 811.743 5284.97 860.547 5284.97 914.476C5284.97 968.851 5276.94 1017.88 5260.9 1061.56C5244.85 1105.23 5222.12 1142.45 5192.7 1173.2C5163.28 1203.96 5127.62 1227.58 5085.72 1244.07C5044.27 1260.56 4997.92 1268.81 4946.66 1268.81C4895.4 1268.81 4848.82 1260.56 4806.92 1244.07C4765.02 1227.58 4729.14 1203.96 4699.28 1173.2C4669.86 1142.45 4646.91 1105.23 4630.41 1061.56C4614.37 1017.88 4606.34 968.851 4606.34 914.476C4606.34 860.547 4614.37 811.743 4630.41 768.064C4646.91 724.386 4669.86 687.393 4699.28 657.086C4729.14 626.778 4765.02 603.379 4806.92 586.888C4848.82 570.397 4895.4 562.152 4946.66 562.152ZM4946.66 1141.78C5003.71 1141.78 5045.83 1122.62 5073.02 1084.29C5100.66 1045.96 5114.47 989.799 5114.47 915.813C5114.47 841.827 5100.66 785.447 5073.02 746.671C5045.83 707.895 5003.71 688.507 4946.66 688.507C4888.71 688.507 4845.92 708.118 4818.29 747.339C4790.65 786.115 4776.83 842.273 4776.83 915.813C4776.83 989.353 4790.65 1045.51 4818.29 1084.29C4845.92 1122.62 4888.71 1141.78 4946.66 1141.78Z" fill="#154490"/>
<path d="M5413.82 1258.78V572.849H5514.77C5536.17 572.849 5550.21 582.877 5556.89 602.933L5568.26 657.086C5582.08 642.823 5596.56 629.898 5611.72 618.31C5627.32 606.722 5643.59 596.694 5660.53 588.225C5677.91 579.757 5696.41 573.294 5716.02 568.838C5735.63 564.381 5757.03 562.152 5780.2 562.152C5817.65 562.152 5850.85 568.615 5879.83 581.54C5908.8 594.019 5932.87 611.847 5952.03 635.024C5971.65 657.754 5986.35 685.165 5996.16 717.255C6006.41 748.899 6011.54 783.887 6011.54 822.217V1258.78H5846.4V822.217C5846.4 780.321 5836.59 748.008 5816.98 725.277C5797.81 702.101 5768.84 690.513 5730.06 690.513C5701.53 690.513 5674.79 696.976 5649.83 709.901C5624.87 722.826 5601.25 740.431 5578.96 762.716V1258.78H5413.82Z" fill="#154490"/>
<path d="M6478.61 1467.14L6386.86 1520.08C6382.65 1522.49 6382.65 1528.65 6386.86 1531.06L6984.44 1876.04C7000.08 1885.06 7019.48 1885.06 7035.13 1876.04L7632.71 1531.06C7636.92 1528.65 7636.92 1522.49 7632.71 1520.08L7540.96 1467.14C7525.31 1458.12 7505.91 1458.12 7490.27 1467.14L7092.13 1697.08C7083.71 1701.89 7073.18 1695.88 7073.18 1686.1V1007.12C7073.18 989.074 7082.81 972.381 7098.45 963.208L7686.55 623.792C7694.98 618.979 7705.5 624.995 7705.5 634.77V1094.49C7705.5 1112.54 7715.13 1129.23 7730.77 1138.4L7822.52 1191.34C7826.74 1193.75 7832 1190.74 7832 1185.93V495.965C7832 477.919 7822.37 461.227 7806.73 452.053L7209.15 107.073C7204.94 104.667 7199.67 107.674 7199.67 112.487V218.507C7199.67 236.553 7209.3 253.246 7224.94 262.419L7623.08 492.356C7631.5 497.168 7631.5 509.349 7623.08 514.312L7034.98 853.729C7019.33 862.752 6999.93 862.752 6984.29 853.729L6396.18 514.312C6387.76 509.5 6387.76 497.319 6396.18 492.356L6794.32 262.419C6809.96 253.396 6819.59 236.704 6819.59 218.507V112.487C6819.59 107.674 6814.32 104.516 6810.11 107.073L6212.53 452.053C6196.89 461.076 6187.26 477.769 6187.26 495.965V1185.93C6187.26 1190.74 6192.53 1193.9 6196.74 1191.34L6288.49 1138.4C6304.13 1129.38 6313.76 1112.69 6313.76 1094.49V634.77C6313.76 624.995 6324.29 618.979 6332.71 623.792L6920.81 963.208C6936.46 972.231 6946.08 988.923 6946.08 1007.12V1686.1C6946.08 1695.88 6935.55 1701.89 6927.13 1697.08L6528.99 1467.14C6513.35 1458.12 6493.95 1458.12 6478.31 1467.14H6478.61Z" fill="#154490"/>
<path d="M7300.91 1430.3C7316.55 1421.28 7326.17 1404.58 7326.17 1386.39V1219.01C7326.17 1209.24 7336.7 1203.22 7345.13 1208.03L7765.52 1450.75C7767.48 1451.96 7769.89 1451.96 7771.84 1450.75L7806.59 1430.6C7822.23 1421.58 7831.86 1404.89 7831.86 1386.69V1346.54C7831.86 1344.28 7830.65 1342.18 7828.7 1341.12L7408.3 1098.4C7399.88 1093.59 7399.88 1081.41 7408.3 1076.45L7553.29 992.684C7568.94 983.661 7578.56 966.968 7578.56 948.771V842.751C7578.56 837.939 7573.3 834.781 7569.09 837.337L7224.65 1036.14C7209.01 1045.17 7199.38 1061.86 7199.38 1080.06V1477.67C7199.38 1482.48 7204.64 1485.64 7208.85 1483.09L7300.61 1430.15L7300.91 1430.3ZM6819.74 1477.82C6819.74 1482.63 6814.48 1485.79 6810.27 1483.24L6718.52 1430.3C6702.87 1421.28 6693.25 1404.58 6693.25 1386.39V1219.01C6693.25 1209.24 6682.72 1203.22 6674.3 1208.03L6253.9 1450.75C6251.94 1451.96 6249.54 1451.96 6247.58 1450.75L6212.84 1430.6C6197.19 1421.58 6187.57 1404.89 6187.57 1386.69V1346.54C6187.57 1344.28 6188.77 1342.18 6190.73 1341.12L6611.12 1098.4C6619.55 1093.59 6619.55 1081.41 6611.12 1076.45L6466.13 992.684C6450.49 983.661 6440.86 966.968 6440.86 948.771V842.751C6440.86 837.939 6446.12 834.781 6450.33 837.337L6794.77 1036.14C6810.42 1045.17 6820.04 1061.86 6820.04 1080.06V1477.67L6819.74 1477.82ZM6984.44 707.556C7000.08 716.579 7019.49 716.579 7035.13 707.556L7379.57 508.748C7383.78 506.342 7383.78 500.177 7379.57 497.77L7287.82 444.835C7272.18 435.812 7252.77 435.812 7237.13 444.835L7092.14 528.599C7083.71 533.411 7073.18 527.396 7073.18 517.621V32.3325C7073.18 30.0768 7071.98 28.2722 7070.03 26.9187L7035.28 6.76727C7019.64 -2.25576 7000.24 -2.25576 6984.59 6.76727L6949.85 26.9187C6947.29 28.7233 6946.69 30.0768 6946.69 32.3325V517.621C6946.69 527.396 6936.16 533.411 6927.74 528.599L6782.74 444.835C6767.1 435.812 6747.7 435.812 6732.05 444.835L6640.3 497.77C6636.09 500.177 6636.09 506.342 6640.3 508.748L6984.74 707.556H6984.44Z" fill="#D95A00"/>
<path d="M3928.46 1821.58V1967.42H3851.38V1553.11H3986.34C4014.04 1553.11 4038.01 1556.35 4058.26 1562.85C4078.51 1569.34 4095.23 1578.42 4108.41 1590.07C4121.59 1601.72 4131.33 1615.66 4137.63 1631.9C4143.94 1648.14 4147.09 1665.9 4147.09 1685.19C4147.09 1705.25 4143.75 1723.68 4137.06 1740.49C4130.38 1757.11 4120.35 1771.44 4106.97 1783.47C4093.6 1795.5 4076.89 1804.86 4056.83 1811.55C4036.77 1818.23 4013.28 1821.58 3986.34 1821.58H3928.46ZM3928.46 1761.41H3986.34C4000.48 1761.41 4012.8 1759.69 4023.31 1756.25C4033.81 1752.62 4042.5 1747.56 4049.38 1741.06C4056.26 1734.38 4061.42 1726.36 4064.85 1717C4068.29 1707.45 4070.01 1696.85 4070.01 1685.19C4070.01 1674.11 4068.29 1664.09 4064.85 1655.11C4061.42 1646.13 4056.26 1638.49 4049.38 1632.19C4042.5 1625.88 4033.81 1621.11 4023.31 1617.86C4012.8 1614.42 4000.48 1612.7 3986.34 1612.7H3928.46V1761.41Z" fill="#D95A00"/>
<path d="M4278.33 1541.65V1967.42H4207.55V1541.65H4278.33Z" fill="#D95A00"/>
<path d="M4588.93 1967.42H4557.12C4550.43 1967.42 4545.18 1966.46 4541.36 1964.55C4537.54 1962.45 4534.67 1958.34 4532.76 1952.23L4526.46 1931.31C4519.01 1938 4511.66 1943.92 4504.4 1949.08C4497.33 1954.04 4489.97 1958.25 4482.33 1961.69C4474.69 1965.12 4466.57 1967.7 4457.98 1969.42C4449.38 1971.14 4439.83 1972 4429.32 1972C4416.91 1972 4405.44 1970.38 4394.94 1967.13C4384.43 1963.69 4375.36 1958.63 4367.72 1951.94C4360.27 1945.26 4354.44 1936.95 4350.24 1927.02C4346.04 1917.08 4343.93 1905.53 4343.93 1892.35C4343.93 1881.27 4346.8 1870.38 4352.53 1859.68C4358.45 1848.8 4368.19 1839.05 4381.76 1830.46C4395.32 1821.67 4413.37 1814.41 4435.91 1808.68C4458.45 1802.95 4486.44 1799.71 4519.87 1798.94V1781.75C4519.87 1762.08 4515.67 1747.56 4507.26 1738.2C4499.05 1728.65 4487.01 1723.87 4471.16 1723.87C4459.7 1723.87 4450.15 1725.21 4442.5 1727.89C4434.86 1730.56 4428.18 1733.62 4422.45 1737.05C4416.91 1740.3 4411.75 1743.26 4406.97 1745.94C4402.2 1748.61 4396.94 1749.95 4391.21 1749.95C4386.44 1749.95 4382.33 1748.71 4378.89 1746.22C4375.45 1743.74 4372.68 1740.68 4370.58 1737.05L4357.69 1714.42C4391.5 1683.47 4432.28 1668 4480.04 1668C4497.23 1668 4512.52 1670.87 4525.89 1676.6C4539.45 1682.14 4550.91 1689.97 4560.27 1700.09C4569.63 1710.03 4576.7 1721.96 4581.48 1735.91C4586.44 1749.85 4588.93 1765.13 4588.93 1781.75V1967.42ZM4451.39 1923.29C4458.65 1923.29 4465.33 1922.62 4471.44 1921.29C4477.56 1919.95 4483.29 1917.94 4488.64 1915.27C4494.18 1912.59 4499.43 1909.35 4504.4 1905.53C4509.55 1901.52 4514.71 1896.84 4519.87 1891.49V1841.92C4499.24 1842.88 4481.95 1844.69 4468.01 1847.36C4454.25 1849.85 4443.17 1853.09 4434.77 1857.11C4426.36 1861.12 4420.34 1865.8 4416.72 1871.14C4413.28 1876.49 4411.56 1882.32 4411.56 1888.62C4411.56 1901.04 4415.19 1909.92 4422.45 1915.27C4429.9 1920.62 4439.54 1923.29 4451.39 1923.29Z" fill="#D95A00"/>
<path d="M4755.08 1972C4729.68 1972 4710.1 1964.84 4696.34 1950.51C4682.59 1935.99 4675.71 1916.03 4675.71 1890.63V1726.45H4645.91C4642.09 1726.45 4638.75 1725.21 4635.88 1722.73C4633.21 1720.24 4631.87 1716.52 4631.87 1711.55V1683.47L4679.15 1675.74L4694.05 1595.51C4694.81 1591.69 4696.53 1588.73 4699.21 1586.63C4702.07 1584.53 4705.61 1583.48 4709.81 1583.48H4746.49V1676.02H4823.85V1726.45H4746.49V1885.76C4746.49 1894.93 4748.78 1902.09 4753.36 1907.25C4757.95 1912.4 4764.06 1914.98 4771.7 1914.98C4776.1 1914.98 4779.73 1914.51 4782.59 1913.55C4785.65 1912.4 4788.23 1911.26 4790.33 1910.11C4792.62 1908.97 4794.63 1907.91 4796.35 1906.96C4798.06 1905.81 4799.78 1905.24 4801.5 1905.24C4803.6 1905.24 4805.32 1905.81 4806.66 1906.96C4808 1907.91 4809.43 1909.44 4810.96 1911.54L4832.16 1945.93C4821.85 1954.52 4810 1961.02 4796.63 1965.41C4783.26 1969.8 4769.41 1972 4755.08 1972Z" fill="#D95A00"/>
<path d="M4892.75 1967.42V1726.74L4867.25 1722.73C4861.71 1721.77 4857.22 1719.86 4853.78 1717C4850.53 1714.13 4848.91 1710.12 4848.91 1704.96V1676.02H4892.75V1654.25C4892.75 1637.44 4895.23 1622.35 4900.2 1608.98C4905.36 1595.61 4912.61 1584.24 4921.98 1574.88C4931.53 1565.52 4943.08 1558.36 4956.65 1553.39C4970.21 1548.43 4985.49 1545.94 5002.49 1545.94C5016.06 1545.94 5028.66 1547.76 5040.32 1551.39L5038.88 1586.92C5038.5 1592.46 5035.92 1595.89 5031.15 1597.23C5026.37 1598.57 5020.83 1599.24 5014.53 1599.24C5006.12 1599.24 4998.58 1600.19 4991.89 1602.1C4985.4 1603.82 4979.86 1606.97 4975.27 1611.56C4970.69 1615.95 4967.15 1621.87 4964.67 1629.32C4962.38 1636.58 4961.23 1645.65 4961.23 1656.54V1676.02H5037.74V1726.45H4963.52V1967.42H4892.75Z" fill="#D95A00"/>
<path d="M5206.56 1668.86C5228.53 1668.86 5248.39 1672.4 5266.16 1679.46C5284.12 1686.53 5299.4 1696.56 5312 1709.55C5324.61 1722.54 5334.35 1738.39 5341.23 1757.11C5348.11 1775.83 5351.55 1796.75 5351.55 1819.86C5351.55 1843.16 5348.11 1864.17 5341.23 1882.89C5334.35 1901.61 5324.61 1917.56 5312 1930.74C5299.4 1943.92 5284.12 1954.04 5266.16 1961.11C5248.39 1968.18 5228.53 1971.71 5206.56 1971.71C5184.59 1971.71 5164.63 1968.18 5146.67 1961.11C5128.71 1954.04 5113.34 1943.92 5100.54 1930.74C5087.93 1917.56 5078.09 1901.61 5071.02 1882.89C5064.15 1864.17 5060.71 1843.16 5060.71 1819.86C5060.71 1796.75 5064.15 1775.83 5071.02 1757.11C5078.09 1738.39 5087.93 1722.54 5100.54 1709.55C5113.34 1696.56 5128.71 1686.53 5146.67 1679.46C5164.63 1672.4 5184.59 1668.86 5206.56 1668.86ZM5206.56 1917.27C5231.01 1917.27 5249.06 1909.06 5260.71 1892.63C5272.56 1876.21 5278.48 1852.14 5278.48 1820.43C5278.48 1788.72 5272.56 1764.56 5260.71 1747.94C5249.06 1731.32 5231.01 1723.01 5206.56 1723.01C5181.72 1723.01 5163.39 1731.42 5151.54 1748.23C5139.7 1764.85 5133.78 1788.91 5133.78 1820.43C5133.78 1851.95 5139.7 1876.02 5151.54 1892.63C5163.39 1909.06 5181.72 1917.27 5206.56 1917.27Z" fill="#D95A00"/>
<path d="M5406.77 1967.42V1673.45H5448.32C5455.58 1673.45 5460.64 1674.78 5463.5 1677.46C5466.37 1680.13 5468.28 1684.72 5469.23 1691.21L5473.53 1726.74C5484.04 1708.59 5496.36 1694.27 5510.5 1683.76C5524.63 1673.26 5540.49 1668 5558.06 1668C5572.58 1668 5584.61 1671.35 5594.17 1678.03L5585 1731.04C5584.42 1734.47 5583.18 1736.96 5581.27 1738.49C5579.36 1739.82 5576.78 1740.49 5573.53 1740.49C5570.67 1740.49 5566.75 1739.82 5561.79 1738.49C5556.82 1737.15 5550.23 1736.48 5542.02 1736.48C5527.31 1736.48 5514.7 1740.59 5504.19 1748.8C5493.69 1756.82 5484.8 1768.67 5477.54 1784.33V1967.42H5406.77Z" fill="#D95A00"/>
<path d="M5640.7 1967.42V1673.45H5683.97C5693.14 1673.45 5699.16 1677.74 5702.02 1686.34L5706.61 1708.12C5711.76 1702.38 5717.11 1697.13 5722.65 1692.36C5728.38 1687.58 5734.4 1683.47 5740.7 1680.04C5747.2 1676.6 5754.08 1673.92 5761.33 1672.01C5768.79 1669.91 5776.9 1668.86 5785.69 1668.86C5804.22 1668.86 5819.41 1673.92 5831.25 1684.05C5843.29 1693.98 5852.26 1707.26 5858.19 1723.87C5862.77 1714.13 5868.5 1705.82 5875.38 1698.95C5882.25 1691.88 5889.8 1686.15 5898.01 1681.76C5906.23 1677.36 5914.92 1674.11 5924.09 1672.01C5933.45 1669.91 5942.81 1668.86 5952.17 1668.86C5968.41 1668.86 5982.83 1671.35 5995.44 1676.31C6008.05 1681.28 6018.65 1688.54 6027.24 1698.09C6035.84 1707.64 6042.33 1719.29 6046.73 1733.04C6051.31 1746.8 6053.61 1762.55 6053.61 1780.32V1967.42H5982.83V1780.32C5982.83 1761.6 5978.72 1747.56 5970.51 1738.2C5962.29 1728.65 5950.26 1723.87 5934.4 1723.87C5927.15 1723.87 5920.36 1725.12 5914.06 1727.6C5907.95 1730.08 5902.5 1733.71 5897.73 1738.49C5893.14 1743.07 5889.51 1748.9 5886.84 1755.96C5884.17 1763.03 5882.83 1771.15 5882.83 1780.32V1967.42H5811.77V1780.32C5811.77 1760.64 5807.75 1746.32 5799.73 1737.34C5791.9 1728.36 5780.25 1723.87 5764.77 1723.87C5754.65 1723.87 5745.1 1726.45 5736.12 1731.61C5727.33 1736.58 5719.12 1743.45 5711.48 1752.24V1967.42H5640.7Z" fill="#D95A00"/>
</svg>
